<svg width="16" height="16" viewBox="0 0 16 16" fill="none" xmlns="http://www.w3.org/2000/svg">
<rect x="4.90559" y="4.90088" width="5.66341" height="8.32877" transform="rotate(-45 4.90559 4.90088)" stroke="#B7B7B7"/>
<path fill-rule="evenodd" clip-rule="evenodd" d="M5.70459 6.40714L1.20051 10.9112L0.493408 11.6183L1.20051 12.3254L3.38536 14.5103L4.09247 15.2174L4.79958 14.5103L9.30365 10.0062L8.59655 9.2991L4.09247 13.8032L1.90762 11.6183L6.4117 7.11425L5.70459 6.40714ZM13.3083 4.58736L14.0278 3.86786L11.8429 1.68301L11.1234 2.40251L10.4163 1.6954L11.1358 0.975906L11.8429 0.268799L12.55 0.975906L14.7349 3.16075L15.442 3.86786L14.7349 4.57497L14.0154 5.29446L13.3083 4.58736Z" fill="#B7B7B7"/>
</svg>
