<svg width="16" height="16" viewBox="0 0 16 16" fill="none" xmlns="http://www.w3.org/2000/svg">
<path fill-rule="evenodd" clip-rule="evenodd" d="M0.515747 3.88771L8.01141 7.4267L15.5272 3.88766L8.01141 0.346436L0.515747 3.88771ZM2.85736 3.88742L8.01198 6.32111L13.1805 3.88738L8.01198 1.45215L2.85736 3.88742Z" fill="#B7B7B7"/>
<path fill-rule="evenodd" clip-rule="evenodd" d="M5.79726 9.31763L0.515747 11.8128L8.0114 15.3518L15.5272 11.8128L10.5138 9.45063V9.99754H9.3284L13.1805 11.8125L8.01197 14.2462L2.85735 11.8125L6.69911 9.99754H5.79726V9.31763Z" fill="#B7B7B7"/>
<path fill-rule="evenodd" clip-rule="evenodd" d="M5.79726 5.35938L0.515747 7.85458L8.0114 11.3936L15.5272 7.85454L10.5138 5.49238V6.03928H9.3284L13.1805 7.85426L8.01197 10.288L2.85735 7.85429L6.69911 6.03928H5.79726V5.35938Z" fill="#B7B7B7"/>
</svg>
