<svg width="16" height="16" viewBox="0 0 16 16" fill="none" xmlns="http://www.w3.org/2000/svg">
<path d="M15 3.70337C15 4.36022 14.4097 5.11014 13.0919 5.72515C11.8146 6.32122 10.0149 6.70337 8 6.70337C5.98515 6.70337 4.18543 6.32122 2.90814 5.72515C1.59025 5.11014 1 4.36022 1 3.70337C1 3.04652 1.59025 2.2966 2.90814 1.68159C4.18543 1.08552 5.98515 0.703369 8 0.703369C10.0149 0.703369 11.8146 1.08552 13.0919 1.68159C14.4097 2.2966 15 3.04652 15 3.70337Z" stroke="#B7B7B7"/>
<path fill-rule="evenodd" clip-rule="evenodd" d="M2.5 9.32373C1.25883 9.9482 0.5 10.7844 0.5 11.7033C0.5 13.6363 3.85786 15.2033 8 15.2033C12.1421 15.2033 15.5 13.6363 15.5 11.7033C15.5 10.7844 14.7412 9.9482 13.5 9.32373V9.9887H12.5453C12.6611 10.0357 12.7729 10.0844 12.8804 10.1346C14.159 10.7313 14.5 11.3561 14.5 11.7033C14.5 12.0505 14.159 12.6753 12.8804 13.272C11.6831 13.8307 9.95864 14.2033 8 14.2033C6.04136 14.2033 4.31693 13.8307 3.11958 13.272C1.84104 12.6753 1.5 12.0505 1.5 11.7033C1.5 11.3561 1.84104 10.7313 3.11958 10.1346C3.22712 10.0844 3.33891 10.0357 3.45473 9.9887H2.5V9.32373Z" fill="#B7B7B7"/>
<path fill-rule="evenodd" clip-rule="evenodd" d="M2.5 5.32373C1.25883 5.9482 0.5 6.78439 0.5 7.7033C0.5 9.63629 3.85786 11.2033 8 11.2033C12.1421 11.2033 15.5 9.63629 15.5 7.7033C15.5 6.78439 14.7412 5.9482 13.5 5.32373V5.9887H12.5453C12.6611 6.03574 12.7729 6.08442 12.8804 6.13461C14.159 6.73126 14.5 7.3561 14.5 7.7033C14.5 8.05049 14.159 8.67533 12.8804 9.27199C11.6831 9.83075 9.95864 10.2033 8 10.2033C6.04136 10.2033 4.31693 9.83075 3.11958 9.27199C1.84104 8.67533 1.5 8.05049 1.5 7.7033C1.5 7.3561 1.84104 6.73126 3.11958 6.13461C3.22712 6.08442 3.33891 6.03574 3.45473 5.9887H2.5V5.32373Z" fill="#B7B7B7"/>
</svg>
